<svg width="763" height="712" viewBox="0 0 763 712" fill="none" xmlns="http://www.w3.org/2000/svg">
<path d="M212.544 1.38663C117.344 8.31997 34.8104 75.2533 8.41035 166.853C0.943684 192.853 -0.122983 200.853 0.0103501 233.253C0.0103501 259.253 0.41035 265.12 3.07702 277.253C11.7437 318.053 28.677 353.12 54.1437 383.253C59.7437 389.787 135.477 466.32 222.41 553.253L380.544 711.253L543.744 547.92C647.477 444.053 709.744 380.72 714.81 373.92C736.01 345.387 749.477 316.32 757.077 282.453C770.944 219.787 758.277 154.187 721.877 100.72C711.21 84.9866 692.944 64.9866 678.677 53.3866C614.01 0.586631 526.944 -13.8134 448.81 15.3866C427.077 23.52 409.877 32.9866 390.277 47.6533L380.677 54.8533L374.944 50.1866C350.277 30.1866 311.744 12.3199 277.877 5.25327C267.21 3.11994 232.41 -0.480012 227.877 0.053321C227.21 0.186654 220.277 0.719967 212.544 1.38663ZM273.877 41.6533C310.677 50.32 340.41 66.4533 368.81 93.2533L381.21 104.853L394.144 92.4533C421.744 66.0533 452.81 49.3866 489.877 40.9866C502.01 38.3199 507.477 37.92 530.544 37.92C560.277 37.92 569.477 39.2533 593.744 47.3866C650.81 66.32 696.81 112.32 715.744 169.253C722.944 191.12 724.677 201.12 725.477 225.92C726.01 244.987 725.744 251.12 723.477 264.587C718.544 293.253 708.677 318.187 692.41 342.72C685.077 353.787 666.677 372.853 532.41 507.253L380.544 659.253L232.41 511.253C127.477 406.32 81.6104 359.52 74.8104 350.587C54.677 324.187 41.877 292.72 37.2104 258.587C22.8104 153.52 94.9437 56.4533 200.144 39.2533C218.544 36.1866 255.877 37.52 273.877 41.6533Z" fill="black"/>
<path d="M273.877 41.6533C310.677 50.32 340.41 66.4533 368.81 93.2533L381.21 104.853L394.144 92.4533C421.744 66.0533 452.81 49.3866 489.877 40.9866C502.01 38.3199 507.477 37.92 530.544 37.92C560.277 37.92 569.477 39.2533 593.744 47.3866C650.81 66.32 696.81 112.32 715.744 169.253C722.944 191.12 724.677 201.12 725.477 225.92C726.01 244.987 725.744 251.12 723.477 264.587C718.544 293.253 708.677 318.187 692.41 342.72C685.077 353.787 666.677 372.853 532.41 507.253L380.544 659.253L232.41 511.253C127.477 406.32 81.6104 359.52 74.8104 350.587C54.677 324.187 41.877 292.72 37.2104 258.587C22.8104 153.52 94.9437 56.4533 200.144 39.2533C218.544 36.1866 255.877 37.52 273.877 41.6533Z" fill="#C93333"/>
</svg>
